:SAMPLES-PER-SECOND 30
:FRAME-RANGE 1-2643
:FULLY-SPECIFIED
:DEGREES
1983
root  -66.6345 38.6807 -7.65643 -138.618 75.0345 -154.439
RightUpLeg  -12.419 -13.3116 -4.05808
RightLeg  26.9104 -3.72387 -2.28014
RightFoot  -9.83756 -0.230708 12.4203
RightToes  5.38607e-012 1.2921e-014 -6.02303e-014
Spine  17.9266 2.70444 2.74482
Spine1  0.013077 4.31423 -6.60742
HEad  -20.0298 -42.9559 23.1579
LeftShoulder1  2.41979 -6.87393 -17.3804
LeftArm  -6.15879 -17.6385 -56.0068
LeftForeArm  26.7333 -2.45179 -10.7685
LeftHand  -0.220337 2.15537 7.65692
RightShoulder  2.72752 7.3281 19.3084
RightArm  -9.66505 37.9162 86.9242
RightForeArm  67.8694 -5.15615 2.13708
RightHand  0.0527074 -5.86623 -16.4336
LeftUpLeg  -35.9236 7.98663 9.03237
LeftLeg  26.0649 2.92191 1.89446
LeftFoot  -3.85406 0.219411 -2.99943
LeftToes  -4.79707e-012 -5.93756e-011 -7.55542e-012
1984
root  -66.2469 38.7171 -7.73551 -142.697 73.4943 -158.454
RightUpLeg  -13.6284 -12.6337 -3.53676
RightLeg  29.0937 -1.78567 -1.30916
RightFoot  -11.2212 -0.0911796 13.864
RightToes  5.38607e-012 1.2921e-014 -6.02303e-014
Spine  17.7878 2.4726 2.05251
Spine1  0.023308 4.00542 -6.53754
HEad  -20.8246 -42.9298 23.7669
LeftShoulder1  2.50255 -7.37344 -17.014
LeftArm  -5.88675 -19.5614 -55.7348
LeftForeArm  27.2624 0.146613 -10.8162
LeftHand  -0.194234 2.24912 6.88883
RightShoulder  2.70182 7.3617 18.9607
RightArm  -6.56732 38.5846 91.0718
RightForeArm  68.9076 -5.23934 2.86836
RightHand  0.0383 -5.77321 -16.1088
LeftUpLeg  -35.4677 7.11835 8.70632
LeftLeg  25.8741 2.19491 1.49964
LeftFoot  -4.1282 0.200935 -2.79447
LeftToes  -4.79707e-012 -5.93756e-011 -7.55542e-012
1985
root  -65.8883 38.7609 -7.77184 -145.886 72.0721 -161.677
RightUpLeg  -15.1164 -12.7099 -3.05481
RightLeg  30.6199 -1.9374 -1.47611
RightFoot  -12.0935 0.00749902 13.6497
RightToes  5.38607e-012 1.2921e-014 -6.02303e-014
Spine  17.7463 2.33433 1.55395
Spine1  0.0113492 3.80021 -6.38406
HEad  -21.6398 -42.9371 24.0613
LeftShoulder1  2.57757 -7.86856 -16.6139
LeftArm  -5.18757 -21.7883 -55.5399
LeftForeArm  27.7734 3.05785 -11.0372
LeftHand  -0.162764 2.48925 6.13665
RightShoulder  2.66647 7.37658 18.5642
RightArm  -3.31761 39.2181 94.5041
RightForeArm  68.0032 -5.43951 3.86137
RightHand  0.0377468 -5.76599 -16.2089
LeftUpLeg  -35 6.11206 8.52799
LeftLeg  25.4929 1.66174 1.20442
LeftFoot  -4.28998 0.19793 -2.79421
LeftToes  -4.79707e-012 -5.93756e-011 -7.55542e-012
1986
root  -65.5803 38.7938 -7.80133 -148.134 70.894 -163.94
RightUpLeg  -16.6981 -13.8854 -2.79708
RightLeg  31.2117 -2.76198 -2.04435
RightFoot  -12.3018 0.026349 13.0987
RightToes  5.38607e-012 1.2921e-014 -6.02303e-014
Spine  17.9086 2.17211 1.68961
Spine1  -0.124021 3.7157 -6.56341
HEad  -22.0853 -42.785 23.6308
LeftShoulder1  2.65483 -8.33149 -16.3367
LeftArm  -4.3584 -23.9475 -55.2172
LeftForeArm  28.6315 5.67078 -11.3673
LeftHand  -0.125432 2.8959 5.28325
RightShoulder  2.63185 7.44709 18.0377
RightArm  -0.293955 40.065 97.4118
RightForeArm  67.109 -5.60807 4.67526
RightHand  0.00896392 -5.54344 -16.9854
LeftUpLeg  -34.5284 5.3258 8.39762
LeftLeg  25.1067 1.19745 0.952849
LeftFoot  -4.49755 0.187908 -2.69071
LeftToes  -4.79707e-012 -5.93756e-011 -7.55542e-012
1987
root  -65.3012 38.8151 -7.80535 -149.94 70.3879 -165.622
RightUpLeg  -18.1718 -12.7421 -3.15396
RightLeg  30.8554 -4.30053 -3.00673
RightFoot  -12.5709 0.0523648 12.8169
RightToes  5.38607e-012 1.2921e-014 -6.02303e-014
Spine  18.4269 2.17494 1.81901
Spine1  -0.43216 3.83324 -6.86868
HEad  -22.2423 -42.4794 22.7648
LeftShoulder1  2.7098 -8.60165 -16.2751
LeftArm  -3.77214 -25.8397 -54.7178
LeftForeArm  29.7419 7.70579 -11.6304
LeftHand  -0.0949869 3.25419 4.38466
RightShoulder  2.60016 7.55476 17.4573
RightArm  2.77533 40.8797 99.5406
RightForeArm  66.8776 -5.78221 5.68216
RightHand  -0.00859235 -5.42278 -16.881
LeftUpLeg  -33.8253 4.69425 8.26174
LeftLeg  24.7915 1.13022 0.910954
LeftFoot  -4.79955 0.187923 -2.78377
LeftToes  -4.79707e-012 -5.93756e-011 -7.55542e-012
1988
root  -65.0632 38.8098 -7.76591 -151.093 69.9267 -166.76
RightUpLeg  -19.7445 -11.8127 -3.74678
RightLeg  29.5371 -4.77127 -3.15125
RightFoot  -12.9849 0.0893501 12.3539
RightToes  5.38607e-012 1.2921e-014 -6.02303e-014
Spine  18.8419 2.06744 2.13571
Spine1  -0.555603 3.8447 -7.02531
HEad  -22.7798 -41.81 22.0147
LeftShoulder1  2.72403 -8.73574 -16.1272
LeftArm  -3.61351 -27.2176 -54.1941
LeftForeArm  31.2259 7.72035 -11.8525
LeftHand  -0.0746296 3.44896 3.5087
RightShoulder  2.55512 7.68061 16.712
RightArm  5.46725 41.764 101.29
RightForeArm  67.5306 -5.88336 6.45336
RightHand  -0.0164328 -5.37081 -16.3969
LeftUpLeg  -33.5113 4.27884 8.26015
LeftLeg  24.8061 1.01982 0.856434
LeftFoot  -5.06813 0.186201 -2.84238
LeftToes  -4.79707e-012 -5.93756e-011 -7.55542e-012
1989
root  -64.85 38.7975 -7.68408 -151.951 69.4789 -167.549
RightUpLeg  -21.1063 -10.5228 -4.59001
RightLeg  27.1658 -5.07017 -3.0457
RightFoot  -12.5891 0.0484155 12.2812
RightToes  5.38607e-012 1.2921e-014 -6.02303e-014
Spine  19.4078 1.90414 2.60921
Spine1  -0.598071 3.78851 -6.96749
HEad  -23.6661 -41.0132 21.2696
LeftShoulder1  2.75734 -8.91571 -16.0606
LeftArm  -3.77769 -28.0468 -53.5277
LeftForeArm  31.9969 7.70618 -11.8327
LeftHand  -0.0676327 3.54556 3.20628
RightShoulder  2.5017 7.73034 16.0683
RightArm  7.18599 42.5825 102.397
RightForeArm  68.1144 -5.91379 6.77761
RightHand  -0.0268951 -5.29602 -15.9511
LeftUpLeg  -33.235 4.22883 8.33049
LeftLeg  24.8506 0.588873 0.640029
LeftFoot  -5.32675 0.19245 -3.0543
LeftToes  -4.79707e-012 -5.93756e-011 -7.55542e-012
1990
root  -64.6563 38.7866 -7.5405 -152.208 69.1638 -167.845
RightUpLeg  -22.582 -8.69638 -5.56033
RightLeg  24.1655 -5.28548 -2.80627
RightFoot  -11.3845 -0.0729232 12.4434
RightToes  5.38607e-012 1.2921e-014 -6.02303e-014
Spine  19.9154 1.73859 3.15189
Spine1  -0.564199 3.7209 -6.79395
HEad  -24.3604 -40.1253 20.6213
LeftShoulder1  2.75655 -8.97867 -15.9272
LeftArm  -3.97393 -28.4291 -52.8848
LeftForeArm  31.4625 7.69787 -11.7296
LeftHand  -0.0715385 3.57241 3.51018
RightShoulder  2.46323 7.69625 15.7618
RightArm  8.07539 43.2619 102.753
RightForeArm  67.9368 -5.93774 6.88379
RightHand  -0.0380077 -5.21333 -15.8526
LeftUpLeg  -33.0905 4.2641 8.63872
LeftLeg  24.8399 0.247648 0.4674
LeftFoot  -5.54137 0.206183 -3.41325
LeftToes  -4.79707e-012 -5.93756e-011 -7.55542e-012
